# xmcd
#
# Track frame offsets: 
#        150
#        21357
#        39820
#        60252
#        77872
#        98525
#        114990
#        131490
#        149137
#        174472
#        193710
#        211007
#        231402
#        249635
#        271182
#        288575
#        309427
#        329312
#
# Disc length: 4630 seconds
#
# Revision: 1
# Processed by: cddbd v1.4PL0 Copyright (c) Steve Scherf et al.
# Submitted via: ExactAudioCopy v0.95a3
#
DISCID=fa121412
DTITLE=Various Artist - Love Songs CD1
DYEAR=1996
DGENRE=Ballad
TTITLE0=Queen - Heaven For Everyone
TTITLE1=Fugees - Killing Me Softly
TTITLE2=Celine Dion - Because You Loved Me
TTITLE3=Backstreet Boys - I'll Never Break Your Heart
TTITLE4=Whitney Houston - Where Do Broken Hearts Go
TTITLE5=Cat Stevens - Father And Son
TTITLE6=Take That - How Deep Is Your Love
TTITLE7=Nick Cave and The Bad Seeds And Kylie Minogue - Where The Wild R
TTITLE7=oses Grow
TTITLE8=George Michael - Father Figure
TTITLE9=Tina Turner - On Silent Wings
TTITLE10=Everything But The Girl - Missing
TTITLE11=Ten Sharp - You
TTITLE12=Billy Joel - Leningrad
TTITLE13=Sophie B. Hawkins - Right Beside You
TTITLE14=Dusty Springfield and Daryl Hall - Wherever Would I Be?
TTITLE15=Elton John - Rocket Man
TTITLE16=Amanda Marshall - Let It Rain
TTITLE17=Heart - All I Wanna Do Is Make Love To You
EXTD=
EXTT0=
EXTT1=
EXTT2=
EXTT3=
EXTT4=
EXTT5=
EXTT6=
EXTT7=
EXTT8=
EXTT9=
EXTT10=
EXTT11=
EXTT12=
EXTT13=
EXTT14=
EXTT15=
EXTT16=
EXTT17=
PLAYORDER=
